<svg width="52" height="58" viewBox="0 4 30 25" fill="none" xmlns="http://www.w3.org/2000/svg">
<path d="M27.9845 16.3173L29.4565 13.7733C29.6334 13.4672 29.6816 13.1034 29.5903 12.7619C29.499 12.4203 29.2759 12.129 28.9699 11.952L26.4232 10.48V7.54663C26.4232 7.19301 26.2827 6.85387 26.0327 6.60382C25.7826 6.35377 25.4435 6.2133 25.0899 6.2133H22.1579L20.6872 3.66796C20.5096 3.36252 20.2188 3.1393 19.8779 3.04663C19.7087 3.00078 19.5322 2.98896 19.3585 3.01185C19.1848 3.03474 19.0173 3.09188 18.8659 3.17996L16.3192 4.65196L13.7725 3.17863C13.4663 3.00183 13.1024 2.95391 12.7608 3.04543C12.4192 3.13695 12.128 3.3604 11.9512 3.66663L10.4792 6.2133H7.54719C7.19357 6.2133 6.85443 6.35377 6.60438 6.60382C6.35433 6.85387 6.21385 7.19301 6.21385 7.54663V10.4786L3.66719 11.9506C3.51523 12.038 3.38204 12.1546 3.27527 12.2936C3.16851 12.4327 3.09026 12.5914 3.04504 12.7608C2.99982 12.9302 2.98851 13.1068 3.01176 13.2806C3.03501 13.4543 3.09236 13.6218 3.18052 13.7733L4.65252 16.3173L3.18052 18.8613C3.00451 19.1677 2.95675 19.5312 3.04767 19.8726C3.13858 20.2141 3.36079 20.5057 3.66585 20.684L6.21252 22.156V25.088C6.21252 25.4416 6.353 25.7807 6.60304 26.0308C6.85309 26.2808 7.19223 26.4213 7.54585 26.4213H10.4792L11.9512 28.968C12.0692 29.1698 12.2378 29.3373 12.4402 29.4542C12.6427 29.5711 12.8721 29.6333 13.1059 29.6346C13.3379 29.6346 13.5685 29.5733 13.7739 29.4546L16.3179 27.9826L18.8645 29.4546C19.1707 29.6312 19.5344 29.6791 19.8758 29.5879C20.2172 29.4966 20.5086 29.2737 20.6859 28.968L22.1565 26.4213H25.0885C25.4421 26.4213 25.7813 26.2808 26.0313 26.0308C26.2814 25.7807 26.4219 25.4416 26.4219 25.088V22.156L28.9685 20.684C29.1202 20.5963 29.2531 20.4796 29.3597 20.3405C29.4663 20.2015 29.5444 20.0428 29.5896 19.8735C29.6348 19.7042 29.6462 19.5277 29.6231 19.354C29.6001 19.1803 29.543 19.0129 29.4552 18.8613L27.9845 16.3173ZM12.9845 9.6373C13.5151 9.63747 14.0239 9.84843 14.399 10.2237C14.7741 10.5991 14.9847 11.108 14.9845 11.6386C14.9843 12.1692 14.7734 12.678 14.3981 13.0531C14.0227 13.4282 13.5138 13.6388 12.9832 13.6386C12.4526 13.6385 11.9438 13.4275 11.5687 13.0522C11.1936 12.6769 10.983 12.1679 10.9832 11.6373C10.9834 11.1067 11.1943 10.5979 11.5696 10.2228C11.945 9.84773 12.4539 9.63712 12.9845 9.6373ZM13.3845 22.4373L11.2512 20.8386L19.2512 10.172L21.3845 11.7706L13.3845 22.4373ZM19.6512 22.9706C19.3885 22.9705 19.1283 22.9187 18.8856 22.8181C18.6429 22.7175 18.4224 22.57 18.2367 22.3842C18.051 22.1983 17.9037 21.9777 17.8032 21.735C17.7028 21.4922 17.6511 21.232 17.6512 20.9693C17.6513 20.7066 17.7031 20.4464 17.8037 20.2037C17.9044 19.961 18.0518 19.7405 18.2376 19.5548C18.4235 19.3691 18.6441 19.2218 18.8868 19.1213C19.1296 19.0209 19.3898 18.9692 19.6525 18.9693C20.1831 18.9695 20.6919 19.1804 21.067 19.5557C21.4421 19.9311 21.6527 20.44 21.6525 20.9706C21.6523 21.5012 21.4414 22.01 21.0661 22.3851C20.6907 22.7602 20.1818 22.9708 19.6512 22.9706Z" fill="url(#paint0_linear_3821_14509)"/>
<defs>
<linearGradient id="paint0_linear_3821_14509" x1="29.6355" y1="16.3173" x2="3" y2="16.3173" gradientUnits="userSpaceOnUse">
<stop stop-color="#800080"/>
<stop offset="1" stop-color="#FF864C"/>
</linearGradient>
</defs>
</svg>
